# xmcd CD database file
#
# Track frame offsets:
#	150
#	20617
#	35843
#	54672
#	73149
#	86502
#	108111
#	130635
#	150072
#	168999
#	190655
#	207892
#	231014
#	252236
#
# Disc length: 3625 seconds
#
# Revision: 0
# Processed by: cddbd v1.4PL0 Copyright (c) Steve Scherf et al.
# Submitted via: Feurio! 1.64 - http://www.feurio.com
#
DISCID=ae0e270e
DTITLE=Jewel - This Way
DYEAR=1900
DGENRE=
TTITLE0=Standing Still
TTITLE1=Jesus Loves You
TTITLE2=Everybody Needs Someone S
TTITLE3=Break Me
TTITLE4=Do You Want To Play
TTITLE5=Till We Run Out Of Road
TTITLE6=Serve The EGO
TTITLE7=This Way
TTITLE8=Cleveland
TTITLE9=I Won't Walk Away
TTITLE10=Love Me Just Leave Me Alo
TTITLE11=The New Wild West
TTITLE12=Grey Matter (Live Bonus Track)
TTITLE13=Sometimes It Be That May (Live Bonus Track)
EXTD=
EXTT0=
EXTT1=
EXTT2=
EXTT3=
EXTT4=
EXTT5=
EXTT6=
EXTT7=
EXTT8=
EXTT9=
EXTT10=
EXTT11=
EXTT12=
EXTT13=
PLAYORDER=
